<?xml version="1.0" standalone="no"?>
<!DOCTYPE svg PUBLIC "-//W3C//DTD SVG 20010904//EN"
 "http://www.w3.org/TR/2001/REC-SVG-20010904/DTD/svg10.dtd">
<svg version="1.0" xmlns="http://www.w3.org/2000/svg"
 width="500.000000pt" height="500.000000pt" viewBox="0 0 500.000000 500.000000"
 preserveAspectRatio="xMidYMid meet">
<metadata>
Created by potrace 1.14, written by Peter Selinger 2001-2017
</metadata>
<g transform="translate(0.000000,500.000000) scale(0.100000,-0.100000)"
fill="#000000" stroke="none">
<path d="M3434 3701 c4 -5 2 -11 -3 -13 -5 -1 -11 -10 -13 -18 -2 -8 -7 -18
-11 -21 -4 -3 -9 -16 -10 -27 -1 -12 -4 -22 -7 -22 -3 0 -7 -9 -8 -20 -4 -42
-6 -50 -12 -50 -3 0 -6 -16 -5 -35 1 -19 -1 -35 -4 -35 -3 0 -7 -33 -8 -72 -1
-40 -5 -91 -9 -113 -4 -22 -8 -50 -8 -62 -1 -13 -4 -23 -8 -23 -3 0 -4 -9 -1
-20 3 -11 0 -27 -7 -35 -7 -9 -10 -18 -7 -22 4 -3 2 -12 -4 -20 -6 -7 -9 -13
-5 -13 3 0 1 -11 -4 -24 -5 -14 -6 -26 -2 -28 8 -3 52 -82 52 -92 0 -3 -9 -6
-20 -6 -11 0 -20 4 -20 10 0 5 -6 7 -14 4 -8 -3 -17 0 -21 6 -5 8 -11 8 -21
-1 -11 -9 -15 -8 -20 5 -3 9 -10 13 -15 10 -5 -3 -9 0 -9 5 0 6 -6 10 -12 9
-7 -2 -12 3 -10 10 1 6 -2 12 -8 12 -16 0 -12 36 6 51 29 24 44 67 39 110 -3
22 -7 45 -10 49 -8 13 17 120 28 120 5 0 5 5 -2 13 -8 10 -7 17 1 25 9 9 9 12
-1 12 -8 0 -11 6 -7 15 3 8 1 15 -4 15 -14 0 -12 30 3 60 16 30 22 110 8 110
-5 0 -12 11 -15 24 -7 27 -32 37 -64 25 -30 -11 -76 -119 -50 -119 4 0 8 -5 8
-11 0 -5 -6 -7 -12 -3 -8 5 -7 0 2 -11 9 -11 10 -16 3 -11 -7 4 -13 4 -14 -1
0 -4 -3 -17 -5 -28 -3 -11 -6 -25 -7 -32 -2 -7 -6 -16 -10 -19 -4 -4 -1 -14 6
-22 8 -10 8 -13 1 -9 -9 5 -11 -9 -9 -48 2 -35 -2 -55 -9 -56 -40 -5 -112 4
-118 14 -6 9 -8 9 -8 0 0 -8 -9 -9 -30 -3 -16 5 -30 7 -30 4 0 -3 -10 0 -21 7
-17 9 -20 8 -14 -2 6 -8 4 -10 -4 -4 -7 4 -27 8 -44 9 -17 1 -33 8 -35 14 -2
7 -8 10 -13 6 -5 -3 -12 2 -15 10 -4 10 -18 16 -39 16 -43 0 -67 -9 -58 -23 4
-6 0 -8 -10 -4 -11 4 -18 -1 -24 -16 -9 -27 -11 -67 -3 -67 3 0 7 -12 8 -27 1
-16 7 -29 12 -31 6 -2 10 -10 10 -17 0 -7 5 -15 11 -17 16 -5 14 -79 -2 -89
-8 -5 -9 -9 -4 -9 6 0 -2 -11 -17 -24 -15 -12 -25 -26 -21 -30 3 -3 -1 -6 -10
-6 -9 0 -17 -6 -17 -13 0 -8 -11 -20 -25 -27 -13 -7 -22 -17 -19 -21 3 -5 -12
-25 -32 -44 -28 -27 -39 -33 -45 -23 -5 7 -9 9 -9 4 0 -5 -8 -2 -18 7 -10 10
-22 14 -26 10 -4 -5 -6 -3 -4 3 3 12 -27 42 -102 104 -73 60 -80 67 -72 74 4
4 2 7 -3 5 -24 -6 -42 13 -37 38 4 20 2 24 -9 18 -11 -7 -12 -6 -2 6 10 12 10
18 1 27 -9 9 -9 12 1 12 7 0 9 5 5 12 -4 6 -9 26 -10 42 -2 17 -5 40 -8 51 -2
11 -5 25 -5 31 -1 12 -141 15 -141 4 0 -3 -17 -5 -37 -4 -21 0 -42 -1 -48 -4
-18 -11 -45 -9 -45 2 0 8 -3 8 -8 0 -4 -6 -18 -15 -31 -19 -18 -6 -22 -4 -15
6 6 11 5 12 -7 2 -8 -6 -42 -14 -74 -17 -33 -2 -60 -5 -60 -6 0 -2 -89 -10
-137 -13 -21 -1 -38 -6 -38 -10 0 -5 -4 -6 -8 -3 -4 2 -14 1 -22 -5 -11 -6
-12 -9 -2 -9 8 0 10 -5 6 -12 -11 -18 -12 -48 -2 -54 4 -3 3 -14 -3 -26 -8
-15 -8 -19 0 -14 7 5 11 -9 12 -41 0 -26 3 -57 5 -68 3 -11 6 -38 7 -60 1 -22
6 -46 10 -52 5 -8 3 -13 -3 -13 -7 0 -10 -7 -6 -17 6 -17 5 -17 -8 0 -7 9 -17
17 -21 17 -4 0 -24 17 -44 38 -21 20 -56 53 -78 72 -23 19 -39 38 -36 44 3 5
1 6 -5 2 -7 -4 -29 9 -51 31 -95 90 -118 110 -139 122 -13 7 -20 17 -16 24 4
7 4 9 -1 5 -4 -4 -16 2 -26 14 -11 11 -19 18 -19 14 0 -4 -10 4 -22 16 -21 22
-58 27 -58 9 0 -5 -13 -24 -30 -42 -16 -19 -30 -37 -30 -41 0 -5 -6 -8 -14 -8
-13 0 -31 -27 -28 -42 1 -5 -5 -8 -14 -8 -8 0 -12 -5 -9 -10 3 -6 -4 -14 -17
-19 -13 -6 -19 -10 -13 -10 5 -1 -1 -8 -13 -17 -12 -8 -22 -21 -22 -28 0 -8
-7 -16 -15 -20 -8 -3 -15 -13 -15 -21 0 -9 -4 -14 -10 -10 -5 3 -16 -7 -24
-22 -8 -15 -15 -24 -16 -18 0 5 -6 1 -14 -10 -7 -11 -13 -22 -13 -25 1 -10
-68 -76 -75 -72 -5 2 -8 -3 -8 -11 0 -17 -50 -73 -63 -69 -5 1 -6 -2 -3 -7 4
-5 -6 -19 -20 -30 -15 -12 -24 -21 -20 -21 4 0 1 -6 -6 -14 -7 -8 -16 -12 -20
-9 -4 2 -5 -3 -2 -11 3 -9 -3 -17 -16 -21 -12 -4 -19 -9 -16 -12 2 -3 -6 -15
-20 -28 -13 -12 -24 -25 -24 -29 0 -12 -27 -35 -34 -29 -3 4 -6 0 -6 -7 0 -7
-13 -26 -30 -41 -16 -16 -28 -29 -25 -29 2 0 -11 -16 -30 -35 -19 -19 -35 -38
-35 -43 0 -12 76 -82 90 -82 6 0 8 -4 5 -10 -3 -5 1 -10 9 -10 9 0 16 -7 16
-17 0 -9 3 -14 6 -10 4 3 12 1 19 -6 7 -7 28 -25 48 -41 20 -17 34 -33 32 -37
-3 -4 8 -12 24 -19 16 -6 32 -18 35 -27 3 -8 11 -11 17 -7 7 4 9 3 5 -4 -3 -6
0 -14 8 -19 18 -10 99 -79 142 -120 18 -18 38 -33 44 -33 6 0 8 -4 5 -10 -3
-5 1 -10 10 -10 9 0 14 -4 11 -8 -2 -4 9 -14 25 -21 16 -7 27 -17 23 -22 -3
-5 0 -9 6 -9 7 0 25 -13 40 -30 15 -16 31 -30 34 -30 3 0 25 -18 47 -40 23
-22 46 -40 51 -40 5 0 6 -5 2 -12 -4 -7 -3 -8 5 -4 6 4 14 0 17 -8 3 -9 10
-13 15 -10 5 3 9 -2 9 -11 0 -9 4 -13 10 -10 5 3 10 2 10 -4 0 -5 16 -22 35
-36 l34 -27 33 34 c18 18 32 35 33 38 0 3 4 3 10 2 5 -2 7 -1 3 3 -6 6 14 31
108 131 42 45 53 44 49 -3 -1 -13 1 -23 5 -23 4 0 7 -17 7 -37 0 -21 4 -56 7
-78 4 -22 8 -49 9 -60 2 -19 19 -33 44 -34 13 -1 73 56 73 70 0 5 7 9 16 9 8
0 13 4 10 8 -3 5 4 15 16 23 11 8 32 24 46 37 14 12 34 22 46 21 12 0 15 -3 8
-6 -6 -2 -9 -10 -5 -16 4 -7 9 -21 10 -32 7 -53 14 -69 24 -54 5 7 9 9 9 3 0
-6 10 -10 23 -8 12 1 22 3 22 4 0 4 96 17 191 26 45 4 55 2 79 -20 16 -15 32
-26 37 -26 5 0 6 -5 3 -11 -4 -6 2 -5 14 3 12 7 21 16 21 19 0 3 10 17 23 31
25 27 85 49 71 26 -6 -10 -5 -11 7 -1 9 7 43 14 77 15 34 1 62 5 62 9 0 3 12
5 28 3 15 -2 64 -5 109 -8 85 -5 91 -2 99 44 4 26 12 54 20 74 6 15 4 18 -7
12 -8 -5 -8 -2 2 6 9 7 17 18 18 23 4 26 13 45 22 45 14 0 98 -67 92 -74 -4
-3 -1 -6 5 -6 6 0 22 -11 36 -25 14 -14 28 -25 31 -25 3 0 16 -11 29 -25 13
-14 29 -25 35 -25 7 0 9 -4 6 -10 -3 -5 -2 -10 4 -10 6 0 32 -21 58 -46 53
-52 70 -58 96 -36 9 8 20 12 24 9 3 -4 12 -2 20 4 9 9 13 8 13 0 0 -13 22 -10
32 4 5 6 8 6 8 -1 0 -6 18 -11 40 -11 46 0 44 -6 41 115 -1 52 2 89 10 98 6 8
8 14 4 14 -5 0 2 8 13 19 12 10 19 21 15 25 -3 3 -2 6 3 6 6 0 19 7 30 16 19
15 18 15 -2 5 -15 -7 -21 -7 -21 3 0 7 7 13 16 12 9 0 16 4 16 11 0 6 3 14 6
18 4 3 6 -5 5 -17 0 -13 4 -22 10 -21 6 1 17 -9 24 -22 7 -14 17 -25 22 -25 5
0 7 4 4 8 -2 4 4 13 14 20 11 7 21 8 25 2 3 -5 21 -4 43 4 39 14 58 11 80 -11
7 -7 20 -14 28 -14 8 -1 19 -3 24 -4 6 -1 15 -3 20 -4 6 0 9 -4 9 -8 -4 -23 3
-35 16 -30 14 6 37 -10 90 -60 13 -13 27 -23 31 -23 3 0 15 -11 25 -24 11 -14
35 -34 54 -46 19 -12 33 -26 29 -31 -3 -5 2 -9 10 -9 8 0 19 -6 23 -14 5 -8
19 -19 33 -24 21 -8 28 -4 52 26 16 19 28 39 28 45 0 6 3 7 7 4 3 -4 15 3 27
16 12 13 35 23 54 24 17 1 38 8 45 15 15 15 31 49 29 61 -1 4 2 7 8 7 5 0 16
14 25 30 9 17 12 30 9 30 -4 0 1 10 12 22 10 12 13 18 5 13 -9 -5 -7 1 4 19
10 14 21 26 26 26 5 0 8 3 8 8 -3 19 2 33 11 27 5 -3 16 7 24 22 8 15 15 24
16 18 0 -5 8 2 17 15 24 34 43 56 81 96 17 19 32 38 32 43 0 5 7 12 16 15 8 3
12 11 8 17 -4 7 -3 9 3 6 6 -4 18 4 26 17 9 12 29 37 46 54 17 17 31 33 31 37
0 4 15 22 34 40 19 18 39 42 45 54 7 12 19 21 27 21 8 0 13 4 10 9 -3 5 0 11
8 14 21 8 13 40 -15 54 -13 7 -20 13 -15 13 5 0 -3 11 -18 25 -15 14 -31 25
-37 25 -15 0 -10 19 10 39 11 11 17 22 14 25 -4 3 -1 6 5 6 6 0 14 9 17 20 3
11 17 23 30 26 13 3 26 12 29 21 3 8 10 11 16 8 5 -3 10 0 10 7 0 7 9 19 20
26 12 7 18 17 15 22 -3 6 1 10 10 10 9 0 13 4 10 10 -3 5 -2 17 3 26 13 22
-22 82 -55 95 -45 17 -93 -5 -93 -43 0 -10 -3 -17 -7 -15 -5 3 -9 -6 -9 -19
-2 -30 -32 -94 -44 -94 -13 0 -40 -59 -33 -76 4 -10 0 -12 -11 -8 -9 3 -16 1
-16 -6 0 -6 -5 -8 -10 -5 -6 4 -8 11 -4 16 3 5 2 8 -3 7 -9 -3 -29 12 -72 55
-16 15 -34 27 -40 27 -7 0 -9 5 -6 10 3 6 1 10 -5 10 -17 0 -40 26 -32 35 4 5
2 5 -4 2 -14 -8 -45 30 -42 51 2 9 9 22 17 28 7 6 14 23 14 37 0 15 3 27 7 27
3 0 6 10 5 23 -1 12 2 28 8 35 5 6 6 12 2 12 -4 0 0 11 9 25 9 14 13 25 9 25
-5 0 -2 4 6 9 9 6 14 32 15 81 2 49 7 74 16 80 20 12 17 94 -4 115 -9 9 -16
20 -16 25 0 9 -13 8 -47 -3 -18 -7 -38 -33 -33 -46 1 -2 -3 -7 -8 -10 -6 -4
-13 -20 -16 -36 -2 -17 -5 -31 -6 -32 -1 -2 -3 -13 -3 -25 -1 -13 -5 -27 -9
-33 -5 -5 -19 -23 -33 -39 -18 -23 -21 -34 -14 -48 5 -10 6 -18 1 -18 -4 0 -9
-10 -9 -22 -1 -13 -3 -30 -6 -38 -2 -8 -7 -26 -11 -40 -10 -37 -39 -34 -81 6
-32 30 -35 37 -23 51 11 14 11 16 -2 8 -13 -8 -13 -6 -2 8 8 9 11 21 7 27 -3
5 -2 10 2 10 5 0 9 10 10 23 2 36 14 81 23 87 10 6 21 51 23 93 1 15 5 27 9
27 4 0 7 8 6 18 -3 40 3 83 11 78 11 -7 9 100 -3 111 -5 5 -6 2 -1 -6 5 -9 4
-12 -3 -7 -7 4 -12 14 -12 22 0 10 -9 14 -30 12 -16 -1 -30 -5 -30 -9 0 -4 -9
-11 -21 -14 -11 -4 -18 -9 -15 -12 3 -3 -6 -14 -19 -25 -14 -11 -25 -26 -25
-34 0 -8 -4 -13 -8 -10 -9 6 -8 -36 1 -51 4 -7 2 -15 -4 -18 -5 -4 -8 -13 -5
-21 3 -8 1 -14 -4 -14 -5 0 -9 -8 -9 -17 -1 -10 -1 -65 -2 -123 -1 -58 -3 -99
-6 -92 -3 6 -9 10 -13 7 -5 -3 -14 4 -20 15 -6 11 -15 18 -20 15 -5 -3 -11 4
-15 15 -3 11 -17 23 -30 26 -13 3 -26 12 -28 19 -7 16 18 64 45 89 21 19 21
20 1 36 -22 17 -22 48 -1 61 11 7 11 9 0 9 -7 0 -10 5 -7 10 4 6 0 21 -9 34
-12 19 -24 24 -55 23 -23 0 -41 -6 -41 -11 0 -6 -4 -5 -8 2 -14 21 -69 32 -83
16 -6 -7 -14 -12 -18 -9 -4 2 -6 -11 -5 -30 2 -25 -3 -39 -19 -52 -24 -19 -27
-30 -13 -52 7 -11 6 -12 -5 -6 -12 8 -12 6 0 -8 8 -10 11 -20 8 -24 -4 -3 -2
-12 5 -20 11 -14 13 -101 2 -112 -3 -3 -9 1 -14 9 -8 13 -14 12 -44 -4 -19
-10 -37 -25 -40 -33 -3 -8 -10 -12 -15 -8 -5 3 -12 -3 -16 -14 -3 -10 -15 -29
-27 -42 -14 -16 -19 -18 -15 -7 3 9 1 19 -6 22 -9 3 -8 5 1 5 7 1 11 5 8 9 -7
11 -9 72 -3 92 2 8 7 29 12 45 4 17 12 36 18 43 5 6 6 12 1 12 -5 0 -3 4 4 8
7 5 15 22 18 37 3 16 10 35 16 42 6 8 12 34 13 59 2 26 9 50 16 55 8 5 11 9 7
9 -4 0 -3 11 2 25 7 18 6 25 -2 25 -6 0 -9 3 -5 6 9 9 -17 67 -44 98 -15 17
-33 26 -51 26 -16 0 -27 -4 -24 -9z m-2381 -507 c4 -8 15 -14 22 -14 8 0 15
-5 15 -11 0 -15 26 -39 34 -32 3 4 6 -1 6 -9 0 -9 14 -21 30 -28 17 -7 30 -16
30 -21 0 -5 9 -18 20 -29 11 -11 20 -17 20 -13 0 3 20 -15 44 -40 24 -25 46
-44 49 -41 3 3 8 0 13 -7 4 -8 3 -10 -4 -5 -7 4 -12 1 -12 -6 0 -8 -3 -9 -8
-3 -9 13 -35 18 -27 5 3 -5 1 -10 -6 -10 -8 0 -8 -4 1 -15 7 -9 8 -15 2 -15
-12 0 -10 -33 3 -42 7 -5 6 -8 -1 -8 -6 0 -10 -20 -10 -45 0 -25 4 -45 10 -45
7 0 7 -3 0 -8 -14 -9 -13 -64 1 -74 6 -5 6 -8 -2 -8 -12 0 -10 -30 3 -52 4 -6
3 -8 -3 -5 -7 4 -10 -9 -9 -36 2 -34 -3 -48 -28 -76 -41 -46 -74 -84 -83 -96
-12 -16 -15 -37 -5 -31 5 3 14 -4 22 -14 8 -10 17 -17 22 -14 4 3 8 -2 8 -10
0 -15 38 -42 53 -38 4 1 7 -2 7 -7 0 -4 12 -20 26 -35 15 -14 21 -26 14 -26
-10 0 -10 -3 0 -15 7 -9 10 -18 7 -22 -4 -3 -1 -13 6 -21 10 -13 9 -14 -3 -7
-12 7 -13 6 -4 -6 6 -8 11 -29 10 -47 0 -17 3 -32 8 -32 5 0 3 -6 -3 -13 -6
-8 -8 -17 -4 -21 10 -10 11 -146 1 -146 -5 0 -6 -5 -3 -10 4 -6 3 -9 -2 -8 -4
2 -20 -10 -35 -25 -15 -15 -24 -27 -20 -27 4 -1 -3 -9 -15 -19 -12 -10 -19
-21 -16 -25 4 -3 1 -6 -6 -6 -14 0 -48 -30 -34 -30 4 0 3 -4 -2 -8 -6 -4 -23
-22 -38 -40 -15 -19 -27 -30 -27 -25 0 4 -4 2 -9 -6 -7 -11 -12 -10 -27 8 -10
11 -22 21 -26 21 -11 0 -63 54 -60 63 1 5 -1 6 -6 3 -5 -3 -33 17 -63 44 -30
27 -66 60 -82 72 -15 13 -46 41 -70 63 -23 22 -45 39 -49 37 -4 -1 -12 7 -18
18 -6 11 -15 18 -20 15 -5 -3 -11 4 -15 15 -3 11 -10 20 -16 20 -9 0 -34 21
-110 93 -23 20 -46 34 -51 31 -6 -4 -8 -3 -5 3 5 8 -35 53 -47 53 -2 0 -21 16
-40 35 -20 19 -41 35 -47 35 -5 0 -7 5 -4 10 3 6 2 10 -3 10 -5 0 -29 18 -53
40 -35 32 -40 40 -26 46 9 3 15 10 12 14 -3 5 4 12 16 15 11 4 18 9 15 12 -3
3 6 15 20 25 14 11 23 23 20 25 -3 3 6 14 19 25 14 11 23 24 20 29 -4 5 0 9 7
9 8 0 20 9 28 21 8 11 23 30 32 41 10 11 15 25 11 31 -4 6 -1 7 6 3 14 -9 42
24 34 38 -4 5 -1 6 4 3 6 -4 20 8 32 26 11 17 21 28 21 23 0 -5 14 10 30 32
17 23 35 42 40 42 6 0 9 4 8 9 -2 5 8 18 21 30 13 12 21 21 18 21 -4 0 1 8 11
18 9 11 20 17 25 15 4 -2 7 3 7 11 0 9 4 16 9 16 5 0 13 9 16 20 4 11 10 18
14 15 4 -2 14 7 21 20 7 14 20 25 27 25 8 0 11 5 8 10 -3 6 1 13 9 16 9 3 16
11 16 16 0 6 16 26 36 44 19 19 32 34 28 34 -4 0 1 7 12 15 10 8 15 15 10 15
-6 0 5 11 24 25 35 26 67 26 83 -1z m2781 -11 c3 -7 12 -13 20 -13 7 0 21 -11
30 -25 9 -14 22 -23 28 -19 6 4 8 3 5 -3 -3 -5 3 -16 14 -23 23 -17 24 -24 3
-44 -8 -9 -17 -28 -20 -43 -2 -16 -7 -34 -9 -41 -3 -7 2 -32 11 -55 8 -23 16
-48 16 -54 1 -7 5 -13 10 -13 5 0 7 -4 4 -8 -3 -5 1 -9 9 -9 8 0 12 4 9 9 -3
4 1 8 8 8 28 0 65 44 63 76 -1 17 2 42 7 54 8 22 8 22 40 -9 17 -17 32 -39 33
-48 0 -10 4 -23 8 -30 4 -6 8 -23 9 -36 1 -14 5 -24 9 -21 11 7 30 -50 25 -76
-2 -14 -5 -31 -5 -38 -1 -7 -5 -10 -11 -7 -6 3 -7 -1 -4 -9 4 -12 0 -16 -17
-16 -12 0 -20 3 -16 6 3 4 -17 28 -46 55 -46 43 -55 47 -94 45 -25 -2 -43 2
-44 8 0 7 -2 6 -5 -1 -4 -9 -15 -9 -47 0 -38 11 -63 13 -77 7 -3 -1 -27 -4
-55 -6 -71 -6 -74 -7 -72 -13 0 -3 -10 -26 -23 -51 -13 -25 -25 -51 -26 -59
-2 -8 -9 -20 -17 -28 -11 -12 -13 -9 -14 19 0 18 5 36 11 40 7 5 7 8 1 8 -6 0
-12 12 -13 28 -3 37 -16 82 -23 79 -3 -1 -13 6 -23 15 -9 10 -24 14 -33 11
-11 -4 -14 -3 -9 5 4 7 2 12 -4 12 -6 0 -8 5 -5 10 3 6 0 10 -8 10 -8 0 -17 7
-21 15 -5 13 -2 14 15 4 16 -8 24 -8 33 2 8 9 8 10 -2 5 -6 -4 -19 -1 -27 7
-13 13 -13 16 0 21 8 3 15 12 15 21 0 8 7 15 17 15 9 0 14 3 10 6 -3 3 5 16
19 29 13 12 24 27 24 34 0 6 7 11 15 11 8 0 14 3 13 8 -3 10 47 62 60 62 6 0
9 7 5 15 -3 10 0 15 8 13 8 -2 13 2 12 7 -1 6 7 11 18 11 23 0 25 -12 4 -20
-8 -3 -15 -12 -15 -20 0 -8 -11 -23 -25 -34 -14 -11 -25 -23 -25 -27 0 -4 -18
-25 -40 -46 -22 -22 -37 -39 -33 -39 4 0 -7 -13 -24 -29 -18 -16 -29 -32 -25
-36 4 -4 7 -10 8 -13 3 -21 18 -42 30 -42 8 0 14 -5 14 -10 0 -6 12 -9 28 -7
19 2 28 10 30 25 2 12 8 22 13 22 6 0 8 4 5 8 -3 5 1 9 8 9 8 0 12 -7 11 -16
-2 -9 -4 -16 -5 -16 -1 0 -3 -8 -5 -18 -2 -9 1 -15 6 -11 5 3 9 -2 9 -10 0 -9
5 -16 11 -16 5 0 7 -6 3 -12 -6 -10 -5 -10 8 -1 8 7 17 10 20 7 7 -7 64 51 67
68 1 7 3 25 4 40 2 16 6 31 10 34 4 4 4 11 0 17 -3 6 -6 31 -6 56 1 25 -3 48
-7 51 -26 17 1 109 31 107 10 -1 21 -7 23 -14z m-1649 -176 c8 -12 15 -17 15
-12 0 5 16 -8 35 -28 19 -20 38 -37 43 -37 4 0 14 -9 22 -20 8 -11 20 -20 28
-20 7 0 10 -4 7 -10 -3 -5 -1 -10 6 -10 22 0 79 -69 72 -88 -10 -27 -35 -52
-46 -45 -5 3 -7 2 -4 -4 3 -5 -7 -24 -24 -42 -16 -18 -26 -37 -23 -42 3 -6 -2
-9 -12 -7 -10 2 -19 -2 -19 -9 0 -17 -15 -29 -15 -12 0 11 -2 11 -10 -1 -7
-11 -10 -11 -10 -2 0 10 -5 10 -20 2 -15 -8 -20 -8 -20 2 0 10 -2 10 -9 -1 -5
-7 -14 -11 -20 -7 -6 4 -9 2 -6 -6 4 -9 -2 -14 -14 -14 -11 0 -17 4 -15 8 3 4
-1 8 -8 9 -59 4 -88 4 -88 -1 0 -3 -15 -5 -32 -5 -18 0 -38 -3 -45 -8 -7 -5
-21 -4 -32 3 -15 8 -21 8 -21 0 0 -6 -4 -8 -10 -5 -5 3 -10 0 -11 -7 0 -9 -2
-10 -5 -1 -3 7 -12 9 -20 6 -7 -3 -11 -9 -8 -14 3 -5 0 -9 -5 -9 -6 0 -11 5
-11 10 0 7 -7 7 -21 -1 -15 -8 -19 -8 -15 0 4 6 0 11 -8 11 -16 0 -17 11 -18
113 -1 15 -3 27 -7 27 -5 0 -8 23 -15 120 -1 19 -5 41 -9 48 -5 6 -4 12 1 12
5 0 9 7 9 15 0 8 -4 12 -8 9 -12 -7 -7 39 5 55 8 11 8 13 -1 7 -18 -10 -16 9
2 24 8 7 22 10 30 6 8 -3 15 -2 15 3 0 5 14 7 31 5 20 -3 28 0 23 7 -4 8 0 7
15 0 11 -7 21 -8 21 -3 0 4 22 8 48 8 27 1 53 3 58 6 5 3 30 5 57 4 26 0 47 3
47 7 0 12 57 -31 75 -56z m977 -62 c-2 -10 1 -14 7 -10 6 3 11 1 11 -4 0 -6
-5 -11 -11 -11 -5 0 -8 -4 -5 -9 3 -4 -5 -8 -17 -7 -14 1 -21 7 -19 16 2 8 4
22 5 31 1 9 8 16 17 14 8 -1 14 -10 12 -20z m-1784 -35 c7 -11 19 -20 26 -20
8 0 18 -9 21 -20 3 -11 11 -20 17 -20 13 0 58 -47 58 -60 0 -5 -9 -15 -20 -23
-11 -8 -17 -17 -12 -22 4 -4 -1 -5 -11 -2 -10 4 -16 3 -12 -2 3 -5 -15 -31
-40 -57 -25 -27 -45 -52 -45 -56 0 -4 -6 -5 -14 -2 -10 4 -13 26 -12 87 1 45
-3 88 -8 96 -8 11 -8 13 2 7 10 -6 11 6 8 53 -4 53 -3 61 12 61 10 0 23 -9 30
-20z m1236 5 c-4 -8 -11 -12 -18 -8 -8 5 -8 3 0 -8 5 -8 9 -25 7 -39 -2 -14
-5 -33 -6 -42 -1 -10 -4 -18 -8 -18 -4 0 -10 -16 -13 -35 -4 -19 -11 -35 -17
-35 -6 0 -7 4 -4 10 3 6 -1 7 -9 4 -11 -4 -16 0 -16 10 0 9 -7 16 -16 16 -8 0
-12 5 -9 10 3 6 1 10 -5 10 -6 0 -10 7 -8 16 4 21 52 74 67 74 6 0 11 7 11 15
0 7 8 19 18 24 24 15 32 13 26 -4z m710 -53 c3 -5 -1 -9 -9 -9 -8 0 -15 4 -15
9 0 4 4 8 9 8 6 0 12 -4 15 -8z m118 1 c-6 -2 -9 -10 -6 -15 4 -7 2 -8 -4 -4
-18 11 -14 26 6 25 10 0 12 -3 4 -6z m-81 -30 c13 -16 12 -17 -3 -4 -10 7 -18
15 -18 17 0 8 8 3 21 -13z m909 -33 c0 -5 5 -10 11 -10 5 0 24 -12 40 -27 16
-16 40 -37 52 -49 13 -11 35 -29 50 -39 15 -9 27 -24 27 -31 0 -8 4 -14 9 -14
13 0 7 -33 -7 -38 -7 -2 -10 -8 -6 -13 3 -5 -2 -9 -10 -9 -8 0 -24 -12 -35
-27 -41 -55 -43 -56 -52 -41 -5 7 -9 9 -9 5 0 -4 -6 -3 -12 3 -50 42 -64 50
-84 50 -12 0 -34 -4 -47 -9 -20 -8 -26 -6 -29 7 -8 29 3 92 15 85 6 -4 7 -1 2
8 -12 18 -14 49 -3 43 5 -3 6 6 2 20 -4 17 -2 26 6 26 6 0 9 4 5 9 -3 6 1 13
8 18 7 4 16 16 20 26 7 18 47 24 47 7z m-900 -20 c0 -5 -4 -10 -10 -10 -5 0
-10 5 -10 10 0 6 5 10 10 10 6 0 10 -4 10 -10z m-900 -25 c0 6 6 3 13 -5 7 -8
25 -22 40 -30 26 -13 28 -18 24 -60 -7 -70 -36 -161 -50 -153 -7 4 -6 -1 2
-10 9 -12 10 -21 3 -29 -5 -7 -13 -31 -16 -54 -7 -38 -46 -94 -66 -94 -5 0
-12 -9 -15 -20 -3 -11 -13 -20 -21 -20 -8 0 -14 -5 -14 -11 0 -5 -4 -8 -9 -5
-5 3 -12 -1 -15 -10 -3 -8 -10 -13 -15 -9 -5 3 -13 0 -16 -6 -5 -7 -13 -4 -25
8 -9 10 -27 24 -38 32 -12 8 -19 18 -16 23 3 4 -2 8 -10 8 -9 0 -16 5 -16 10
0 6 -7 10 -16 10 -8 0 -13 3 -11 8 7 10 -19 32 -29 24 -5 -4 -2 2 6 12 10 13
10 17 3 12 -16 -9 -17 6 -2 21 8 8 8 13 0 17 -14 9 -33 -2 -26 -15 3 -5 -2 -6
-11 -2 -11 4 -15 3 -10 -5 11 -18 -11 -23 -25 -5 -8 9 -9 14 -4 11 9 -5 44 22
37 29 -1 2 2 11 7 21 6 9 11 13 11 9 0 -4 6 -2 14 5 8 7 12 16 9 21 -2 4 1 7
7 7 6 0 8 5 5 10 -3 6 1 13 9 16 9 3 14 10 11 14 -4 7 16 20 31 19 3 0 13 10
23 22 17 21 17 19 17 -55 0 -42 -4 -76 -8 -76 -5 0 -4 -9 2 -19 14 -26 46 -16
56 17 10 36 12 122 3 128 -12 7 14 76 32 83 10 3 18 11 19 16 1 6 8 9 15 9 8
-1 13 2 10 6 -5 8 30 59 49 72 6 4 14 2 18 -5 4 -7 8 -7 8 -2z m865 5 c-3 -5
-1 -10 6 -10 7 0 10 -3 6 -6 -9 -9 -28 6 -22 17 4 5 8 9 11 9 3 0 2 -4 -1 -10z
m-1805 -20 c0 -5 -5 -12 -12 -16 -8 -5 -7 -10 3 -18 8 -6 15 -20 15 -31 3 -38
10 -70 17 -82 4 -6 3 -14 -3 -18 -6 -4 -7 -12 -3 -18 4 -7 8 -25 8 -42 0 -16
4 -36 8 -42 5 -8 3 -13 -5 -13 -8 0 -9 -3 -3 -8 6 -4 11 -23 13 -42 3 -53 9
-88 17 -99 3 -6 2 -11 -4 -11 -6 0 -8 -7 -5 -15 4 -8 11 -12 17 -8 6 4 7 1 1
-8 -15 -24 -17 -62 -2 -54 7 4 4 -1 -6 -9 -11 -9 -14 -16 -7 -16 7 0 9 -5 6
-10 -4 -6 -11 -8 -16 -5 -5 4 -9 0 -9 -8 0 -8 -7 -18 -16 -21 -8 -3 -12 -10
-9 -16 11 -18 -31 -5 -55 18 -13 12 -28 22 -32 22 -5 0 -6 5 -2 12 4 6 3 8 -3
5 -18 -11 -63 50 -72 97 -5 25 -6 46 -4 46 2 0 1 6 -4 13 -13 20 -13 41 0 49
9 6 8 8 -2 8 -7 0 -11 6 -7 15 3 8 1 15 -5 15 -6 0 -5 8 2 21 6 12 7 19 2 16
-6 -4 -11 15 -12 42 -1 37 3 50 15 55 9 4 14 9 11 13 -4 3 6 17 21 29 15 13
24 24 20 24 -5 0 10 18 31 39 22 22 37 42 34 44 -2 3 5 8 17 12 13 4 19 12 16
20 -3 9 0 12 10 8 7 -3 14 -9 14 -13z m1781 -29 c-12 -11 -22 -22 -22 -25 1
-6 -7 -8 -11 -3 -5 7 29 47 41 47 9 0 7 -6 -8 -19z m169 4 c7 -8 17 -12 23 -8
6 4 7 1 3 -6 -6 -9 -13 -8 -29 6 -12 10 -24 19 -26 20 -2 2 0 3 6 3 6 0 16 -7
23 -15z m-210 -55 c0 -5 -5 -10 -11 -10 -5 0 -7 5 -4 10 3 6 8 10 11 10 2 0 4
-4 4 -10z m320 -75 c5 -14 13 -25 18 -25 11 0 9 -30 -5 -54 -6 -12 -13 -15
-17 -8 -4 6 -13 9 -21 5 -11 -3 -15 2 -16 18 -1 13 -2 35 -2 49 -3 43 28 54
43 15z m-288 -9 c9 -20 16 -24 38 -19 15 3 31 0 34 -6 4 -6 2 -11 -4 -11 -6 0
-9 -4 -6 -9 3 -5 -1 -14 -9 -21 -8 -7 -15 -18 -15 -25 0 -7 -6 -15 -14 -18 -9
-4 -13 -19 -12 -41 1 -20 -2 -36 -6 -36 -5 0 -8 -13 -8 -29 0 -16 -4 -31 -9
-33 -5 -1 -11 -10 -13 -18 -4 -17 -15 -33 -43 -61 l-20 -20 20 6 c15 5 17 5 6
-3 -10 -7 -12 -15 -5 -24 5 -8 2 -6 -7 4 -9 9 -20 14 -23 10 -4 -3 -4 2 0 12
5 14 4 17 -4 12 -11 -7 -16 5 -13 31 1 6 -11 10 -28 9 -16 -1 -28 3 -26 9 6
28 18 44 29 38 6 -4 6 0 -2 9 -10 12 -10 18 -1 23 8 6 7 10 -2 16 -11 7 -11 9
-1 9 7 0 10 5 7 10 -3 6 -2 10 3 10 5 0 9 7 10 15 1 8 3 22 4 30 1 10 7 14 16
10 12 -4 12 -3 3 9 -9 11 -5 20 19 46 16 18 23 30 15 26 -8 -3 -15 -1 -15 4 0
6 5 10 12 10 6 0 8 3 4 7 -6 7 30 32 47 33 4 0 12 -11 19 -24z m1218 9 c0 5 7
-1 16 -13 8 -12 20 -20 25 -17 5 4 9 0 9 -8 0 -7 11 -19 25 -25 30 -14 25 -33
-19 -79 -42 -42 -67 -73 -60 -73 3 0 -11 -15 -30 -34 -20 -18 -36 -37 -36 -42
0 -5 -18 -24 -40 -43 -22 -18 -37 -37 -35 -41 3 -5 -7 -13 -22 -18 -16 -6 -22
-11 -14 -11 8 -1 3 -9 -13 -22 -14 -11 -26 -24 -26 -29 0 -13 -48 -59 -54 -52
-3 3 -6 0 -6 -6 0 -14 -40 -62 -51 -62 -10 0 -2 41 11 54 5 5 10 18 10 29 0
11 4 15 12 11 7 -5 8 -3 3 7 -14 22 -15 60 -2 52 8 -4 7 -1 -1 9 -9 11 -10 18
-2 23 6 3 8 11 5 16 -4 5 -4 9 -1 9 2 0 12 3 22 7 13 5 15 3 9 -7 -6 -10 -4
-11 6 -4 8 4 22 10 31 11 21 3 64 43 47 43 -8 0 -9 4 0 13 6 8 8 17 4 20 -3 4
-1 7 6 7 7 0 11 7 8 15 -4 8 -2 17 3 20 5 3 9 28 8 56 -1 49 23 96 43 83 5 -3
9 0 9 7 0 7 3 9 6 6 9 -9 45 33 38 44 -3 5 -1 9 4 9 5 0 14 12 21 27 10 22 14
24 22 12 5 -7 9 -10 9 -4z m-1737 -23 c4 9 6 9 6 1 1 -6 -3 -15 -9 -18 -5 -3
-10 -11 -10 -16 0 -6 5 -7 12 -3 7 5 8 3 4 -5 -5 -7 -14 -10 -21 -7 -9 3 -12
-2 -10 -15 2 -11 0 -17 -6 -14 -5 4 -9 -1 -9 -9 0 -9 -5 -16 -11 -16 -5 0 -7
5 -3 11 3 6 0 15 -7 20 -11 7 -10 9 4 9 9 0 16 3 16 8 -3 19 2 33 10 27 5 -3
12 -1 16 5 3 5 1 10 -4 10 -6 0 -11 5 -11 11 0 8 4 8 14 0 11 -9 15 -9 19 1z
m373 -20 c-17 -16 -18 -16 -5 5 7 12 15 20 18 17 3 -2 -3 -12 -13 -22z m-316
-82 c9 -16 8 -19 -6 -13 -14 5 -15 3 -5 -15 7 -14 8 -22 2 -22 -6 0 -8 -7 -5
-15 4 -8 1 -22 -6 -30 -10 -12 -10 -15 1 -16 12 0 12 -1 0 -6 -11 -4 -11 -7 0
-13 10 -7 10 -11 0 -24 -8 -9 -10 -16 -5 -16 5 0 1 -7 -10 -15 -10 -7 -15 -18
-11 -24 3 -6 -2 -11 -12 -11 -14 0 -15 -2 -4 -9 9 -6 10 -11 2 -15 -6 -4 -9
-11 -7 -15 3 -4 -10 -8 -29 -8 -19 0 -35 5 -35 11 0 6 -5 4 -10 -4 -7 -11 -10
-11 -10 -2 0 8 -5 10 -12 6 -8 -5 -7 0 2 11 14 17 13 18 -4 11 -20 -7 -20 -7
0 15 10 11 18 23 17 25 -8 11 -1 44 10 56 8 7 19 23 26 36 6 12 19 22 29 22
15 0 15 2 2 10 -13 8 -12 10 3 10 9 0 16 4 15 8 -2 4 9 20 24 34 15 14 25 28
21 31 -3 4 -3 7 0 7 3 0 11 -9 17 -20z m984 7 c3 3 6 2 6 -4 0 -5 7 -10 15
-10 8 0 12 4 9 8 -7 12 14 21 35 14 10 -3 21 -16 23 -29 3 -17 1 -23 -8 -19
-10 4 -34 -24 -34 -41 0 -3 20 1 45 8 26 8 45 10 45 4 0 -5 5 -6 10 -3 6 3 10
0 10 -7 0 -10 3 -9 10 2 5 8 12 11 16 8 4 -4 14 -3 23 1 10 6 22 5 32 -2 21
-16 43 -73 33 -88 -4 -8 -3 -10 4 -5 24 15 10 -10 -19 -34 -17 -14 -39 -33
-49 -42 -13 -12 -20 -13 -24 -5 -2 7 -5 2 -5 -10 -1 -13 -6 -23 -12 -23 -6 0
-9 -7 -5 -15 3 -8 1 -15 -5 -15 -6 0 -8 -3 -6 -7 8 -17 -30 -39 -73 -42 -33
-2 -50 -10 -72 -33 -16 -17 -30 -29 -31 -27 -26 47 -28 51 -16 43 9 -5 10 -2
6 9 -4 10 -10 24 -14 34 -5 12 -3 14 7 8 10 -6 11 -4 4 6 -8 13 -10 19 -17 54
-2 8 -6 17 -10 21 -3 4 0 19 9 35 8 16 12 29 8 29 -4 0 0 8 7 17 10 11 10 14
2 9 -7 -4 -13 -2 -13 3 0 6 5 11 10 11 15 0 6 70 -11 81 -12 7 -12 9 1 9 9 0
11 3 5 8 -14 10 -19 46 -6 37 6 -3 11 -1 11 5 0 7 6 8 19 1 10 -6 21 -7 25 -4z
m-2538 -28 c1 -13 4 -49 7 -79 3 -30 3 -49 1 -42 -3 6 -11 12 -18 12 -22 0
-67 52 -64 74 2 12 8 21 13 20 13 -1 35 22 35 36 0 23 25 3 26 -21z m1424 21
c0 -5 -5 -10 -11 -10 -5 0 -7 5 -4 10 3 6 8 10 11 10 2 0 4 -4 4 -10z m-820
-85 c10 -12 5 -17 -26 -30 -26 -10 -41 -12 -48 -5 -9 9 3 15 27 11 4 0 7 4 7
10 0 6 9 8 22 3 20 -6 21 -5 9 10 -7 9 -11 16 -8 16 2 0 10 -7 17 -15z m220
-9 c0 -3 -4 -8 -10 -11 -5 -3 -10 -1 -10 4 0 6 5 11 10 11 6 0 10 -2 10 -4z
m-89 -15 c10 16 10 21 11 -94 1 -74 3 -80 30 -100 15 -11 28 -28 28 -36 0 -14
1 -14 10 -1 5 8 10 10 10 4 0 -5 18 -11 40 -11 27 0 38 3 33 11 -5 8 -3 8 8
-1 18 -14 72 -5 62 11 -4 6 2 4 12 -4 10 -8 16 -10 12 -4 -10 17 23 27 39 13
12 -9 13 -9 9 4 -4 8 -1 18 6 23 7 4 15 2 17 -4 2 -7 10 -19 19 -27 8 -8 11
-20 7 -27 -5 -8 -2 -9 11 -5 17 7 17 6 0 -19 -9 -15 -11 -23 -5 -19 7 4 5 -6
-5 -23 -15 -25 -22 -29 -32 -20 -8 6 -13 7 -11 2 4 -14 -23 -74 -34 -74 -5 0
-6 6 -3 13 4 6 1 5 -7 -4 -13 -16 -25 -19 -85 -20 -18 -1 -33 -6 -33 -11 0 -6
-7 -5 -15 2 -9 8 -15 8 -15 2 0 -6 -11 -9 -25 -6 -16 3 -25 0 -25 -8 0 -9 -3
-8 -10 2 -8 12 -10 12 -10 1 0 -10 -3 -11 -13 -2 -8 6 -17 7 -23 1 -5 -5 -38
-10 -73 -12 -54 -3 -64 0 -67 14 -1 9 4 22 12 29 8 6 12 15 9 19 -3 5 4 11 15
15 25 8 27 47 3 66 -9 8 -14 9 -10 3 4 -7 -10 -18 -36 -27 l-42 -17 25 20 c14
11 21 20 16 20 -5 0 -1 9 8 19 10 11 19 31 20 45 0 14 4 26 7 26 8 0 4 54 -5
69 -4 6 -1 11 6 12 10 0 10 2 1 6 -7 2 -13 20 -13 39 0 30 4 37 30 45 17 6 30
15 30 21 0 5 5 6 10 3 6 -3 13 2 17 11 5 13 8 14 11 5 4 -11 6 -11 13 0z m104
-11 c-3 -5 1 -10 11 -10 14 0 15 -2 3 -17 -8 -10 -9 -14 -2 -10 13 8 66 -36
56 -46 -3 -4 3 -7 15 -7 12 0 23 -8 27 -20 4 -11 10 -18 15 -15 5 3 12 0 16
-6 4 -7 3 -9 -4 -5 -6 3 -13 2 -17 -4 -3 -5 -17 -10 -31 -10 -14 0 -23 -4 -20
-8 3 -5 -1 -9 -9 -9 -8 0 -11 5 -8 11 4 6 -1 5 -10 -3 -12 -9 -17 -10 -17 -2
0 7 -4 10 -9 6 -6 -3 -19 5 -31 17 -11 13 -16 24 -10 26 5 2 10 8 10 13 0 6
-6 7 -12 3 -8 -5 -7 0 2 11 14 17 13 18 -4 11 -19 -7 -19 -6 -1 14 10 11 13
20 7 20 -7 0 -6 8 1 25 7 14 16 25 20 25 5 0 5 -4 2 -10z m-311 -73 c4 5 6 1
4 -7 -1 -8 2 -14 7 -15 20 -1 33 -15 30 -33 -1 -9 2 -25 6 -34 6 -10 5 -19 -1
-23 -6 -4 -8 -11 -4 -16 3 -5 0 -8 -7 -7 -7 2 -14 -3 -15 -9 -1 -7 -2 -16 -3
-19 0 -4 -7 -1 -15 5 -9 7 -17 8 -20 2 -3 -5 -1 -12 4 -14 6 -3 5 -4 -2 -3 -7
1 -12 13 -12 27 0 13 -5 28 -10 32 -7 6 -5 7 5 4 9 -3 16 1 16 8 0 7 -6 11
-13 8 -6 -2 -15 0 -19 6 -3 6 0 9 8 5 8 -3 14 2 14 11 0 14 -10 19 -32 16 -5
-1 -2 5 7 12 14 11 15 16 5 27 -9 9 -9 11 0 6 6 -3 14 -2 18 4 3 5 1 10 -4 10
-6 0 -11 5 -11 12 0 6 7 4 18 -5 10 -10 22 -14 26 -10z m1351 3 c-3 -5 -12
-10 -18 -10 -7 0 -6 4 3 10 19 12 23 12 15 0z m-1745 -132 c0 -5 7 -8 16 -8
20 0 42 -22 36 -38 -2 -6 2 -12 8 -12 6 0 -6 -17 -27 -37 -21 -21 -37 -42 -35
-48 2 -5 -2 -4 -9 2 -17 17 -22 53 -6 53 8 0 8 3 1 8 -14 9 -27 45 -14 37 6
-3 10 -1 10 4 0 6 -4 11 -9 11 -5 0 -9 13 -9 29 1 26 3 28 19 18 11 -7 19 -15
19 -19z m170 -17 c0 -6 -4 -13 -10 -16 -5 -3 -10 1 -10 9 0 9 5 16 10 16 6 0
10 -4 10 -9z m15 -30 c-1 -42 -11 -48 -34 -20 -23 27 -28 47 -7 30 10 -9 16
-8 26 4 16 20 16 20 15 -14z m-54 -61 c20 0 74 -66 76 -93 1 -19 -2 -25 -10
-20 -7 4 -4 -4 5 -19 9 -14 14 -29 10 -33 -4 -4 -8 -11 -8 -16 -1 -5 -2 -13
-3 -17 -2 -13 -95 -77 -106 -74 -5 2 -7 0 -3 -4 5 -4 -7 -20 -24 -36 -18 -16
-34 -24 -36 -18 -2 5 -7 8 -11 5 -5 -2 -8 6 -7 18 1 12 -3 25 -9 30 -6 4 -5
10 5 17 8 5 11 10 5 10 -5 0 -11 17 -11 38 -1 20 -4 56 -7 80 -3 30 -1 47 10
57 8 8 11 15 6 15 -4 1 3 7 17 15 14 8 21 14 16 15 -5 0 3 12 17 26 14 14 31
23 37 19 5 -3 11 0 11 7 1 7 3 5 6 -4 2 -10 9 -18 14 -18z m1768 -53 c0 -9 -2
-8 -6 1 -2 6 -10 9 -15 6 -7 -4 -8 -2 -4 5 9 13 26 5 25 -12z m-634 -17 c10 8
15 8 21 -1 5 -8 3 -10 -7 -4 -8 5 -11 4 -6 -1 5 -5 13 -10 18 -10 5 -1 10 -2
12 -4 1 -1 10 -3 20 -5 25 -5 31 -11 22 -24 -3 -6 -12 -8 -18 -5 -8 4 -7 2 1
-7 11 -12 14 -12 22 1 5 8 7 23 4 34 -4 13 -2 17 7 14 8 -3 13 -12 11 -22 -2
-9 2 -16 8 -16 5 0 10 -7 10 -16 0 -14 -3 -15 -17 -3 -10 7 -15 9 -11 5 4 -5
2 -16 -4 -25 -10 -13 -10 -14 1 -4 7 6 20 9 27 6 8 -3 14 0 14 6 0 6 5 11 11
11 5 0 7 -4 4 -10 -5 -9 1 -12 21 -9 4 0 10 -5 14 -11 5 -8 9 -7 13 4 4 9 2
16 -2 16 -5 0 -11 6 -14 13 -3 8 1 14 9 14 7 0 11 -4 8 -8 -2 -4 0 -10 5 -14
6 -3 8 -12 4 -20 -3 -8 0 -15 6 -15 6 0 8 -12 4 -32 -5 -25 -3 -30 8 -24 8 4
5 0 -5 -8 -11 -9 -15 -16 -10 -16 6 0 11 -7 11 -15 0 -8 -4 -15 -9 -15 -5 0
-6 -5 -2 -12 4 -6 -4 -3 -18 8 -18 13 -22 22 -14 27 6 5 2 7 -12 4 -19 -5 -21
-3 -11 9 10 12 9 13 -3 9 -9 -4 -18 1 -21 9 -4 9 -14 16 -22 16 -9 0 -13 5
-10 10 3 6 1 10 -5 10 -6 0 -8 5 -4 13 6 8 3 8 -9 -1 -14 -12 -16 -11 -12 7 2
14 -1 18 -11 14 -9 -3 -14 2 -14 17 0 19 -2 20 -15 10 -13 -11 -14 -10 -9 5 5
13 4 16 -4 11 -7 -4 -12 -1 -12 9 0 9 -4 13 -10 10 -5 -3 -10 1 -10 10 0 9 -4
13 -10 10 -6 -4 -7 1 -3 11 4 12 8 14 11 6 3 -10 7 -10 17 -2z m53 -15 c-3 -3
-9 2 -12 12 -6 14 -5 15 5 6 7 -7 10 -15 7 -18z m100 -13 c15 12 16 11 3 -4
-14 -19 -32 -15 -30 5 0 8 2 8 6 -1 4 -10 8 -10 21 0z m789 -18 c2 -6 -3 -11
-11 -11 -8 0 -13 4 -10 8 2 4 -2 10 -8 13 -7 3 -4 5 6 3 11 -1 21 -7 23 -13z
m193 -106 c0 -5 5 -6 10 -3 6 3 10 2 10 -3 0 -5 9 -12 21 -15 12 -3 18 -10 14
-17 -3 -6 -3 -9 2 -8 4 2 18 -7 31 -20 12 -12 27 -20 32 -17 6 3 7 -1 4 -9 -3
-9 -9 -14 -13 -12 -9 5 -31 -21 -24 -28 4 -3 -6 -6 -20 -6 -15 0 -27 4 -27 8
0 5 -11 15 -25 22 -14 7 -25 19 -25 27 0 7 -5 13 -10 13 -6 0 -20 11 -32 25
-11 13 -24 22 -28 20 -4 -3 -10 3 -12 13 -4 15 2 18 43 19 27 0 49 -4 49 -9z
m-716 -36 c-6 -4 -13 -15 -17 -25 -4 -11 -12 -15 -19 -11 -7 5 -9 2 -6 -8 4
-8 -2 -20 -13 -26 -24 -15 -25 0 -3 33 9 14 20 22 25 19 5 -3 9 2 9 10 0 9 8
16 18 16 10 0 13 -3 6 -8z"/>
<path d="M2125 2440 c-3 -6 1 -7 9 -4 18 7 21 14 7 14 -6 0 -13 -4 -16 -10z"/>
<path d="M3145 2310 c-3 -5 1 -10 10 -10 9 0 13 5 10 10 -3 6 -8 10 -10 10 -2
0 -7 -4 -10 -10z"/>
<path d="M1789 2258 c-6 -21 -5 -39 2 -44 5 -3 7 -9 4 -14 -3 -5 4 -8 15 -7
26 2 26 22 0 40 -11 8 -17 17 -13 20 3 4 3 7 0 7 -4 0 -7 -1 -8 -2z m26 -38
c3 -5 2 -10 -4 -10 -5 0 -13 5 -16 10 -3 6 -2 10 4 10 5 0 13 -4 16 -10z"/>
<path d="M1809 2175 c-1 -5 -1 -14 0 -19 1 -5 -3 -12 -8 -15 -6 -4 -1 -12 10
-20 12 -7 18 -8 15 -3 -3 5 3 17 14 27 10 9 16 23 14 30 -6 16 -43 16 -45 0z
m35 -4 c3 -5 -1 -11 -9 -15 -8 -3 -17 0 -21 6 -4 7 -3 8 4 4 7 -4 12 -2 12 3
0 13 7 14 14 2z"/>
<path d="M2004 1521 c-14 -9 -15 -31 -3 -31 8 0 8 -4 2 -12 -5 -7 -9 -40 -9
-72 1 -47 4 -60 17 -62 13 -1 16 5 15 28 -2 28 7 41 29 44 6 0 15 2 21 2 6 1
20 10 32 20 17 15 19 21 9 32 -10 10 -9 11 3 5 8 -4 2 6 -15 22 -23 22 -33 27
-44 19 -11 -8 -13 -8 -8 0 7 12 -34 16 -49 5z m86 -63 c0 -4 -7 -9 -15 -9 -8
-1 -21 -2 -27 -3 -7 -1 -18 3 -24 9 -12 10 0 27 26 37 14 5 40 -17 40 -34z"/>
<path d="M2353 1500 c4 -16 3 -29 -1 -29 -4 1 -16 1 -26 0 -19 -1 -19 -2 2
-21 23 -22 30 -36 11 -25 -6 4 -5 -3 3 -15 10 -18 10 -24 0 -27 -7 -3 -16 -12
-21 -21 -8 -15 -3 -17 35 -17 50 0 56 6 33 33 -12 14 -14 24 -6 37 7 13 6 16
-3 10 -9 -6 -9 -3 -1 14 7 12 8 21 2 21 -5 0 -9 9 -8 20 1 11 5 20 10 20 5 0
2 7 -7 15 -22 23 -29 18 -23 -15z"/>
<path d="M2640 1515 c-7 -8 -9 -15 -4 -15 5 -1 -1 -9 -13 -19 -21 -18 -21 -19
-4 -37 9 -11 16 -31 16 -46 -1 -16 2 -28 7 -28 4 0 8 -6 8 -13 0 -9 12 -13 35
-13 19 1 36 3 36 6 1 3 3 15 4 28 2 21 1 21 -15 7 -26 -24 -37 -18 -42 21 -4
32 -2 36 25 41 31 6 24 23 -10 26 -14 1 -19 6 -15 19 2 10 -1 18 -7 18 -7 0
-9 5 -6 10 9 15 -1 12 -15 -5z"/>
<path d="M2812 1506 c2 -12 -6 -28 -17 -38 -19 -15 -19 -17 -2 -23 23 -9 24
-70 1 -79 -33 -13 12 -30 54 -21 25 6 30 25 6 25 -8 0 -12 5 -9 10 3 6 1 10
-4 10 -6 0 -11 5 -11 11 0 5 4 8 9 5 10 -7 9 13 -2 31 -4 6 -1 14 5 16 10 4
10 6 1 6 -7 1 -13 10 -13 20 0 11 6 22 13 24 9 4 9 6 -1 6 -7 1 -11 5 -8 9 3
5 -2 9 -10 9 -9 0 -14 -8 -12 -21z"/>
<path d="M2158 1472 c-10 -2 -15 -9 -11 -18 3 -7 9 -12 13 -9 5 3 7 -6 4 -21
-3 -17 -1 -23 7 -19 8 6 8 2 0 -13 -6 -12 -16 -24 -21 -27 -19 -12 -1 -22 40
-23 43 -2 58 21 20 31 -17 4 -19 9 -11 29 5 12 9 28 10 33 1 6 10 8 19 7 9 -2
21 -5 27 -5 5 -1 11 7 13 18 2 15 -3 21 -18 21 -11 0 -20 -4 -20 -8 0 -8 -42
-6 -50 2 -3 3 -13 4 -22 2z"/>
<path d="M2470 1471 c0 -7 -4 -10 -8 -7 -4 2 -9 -6 -10 -19 -1 -13 3 -27 9
-30 7 -5 6 -11 -2 -21 -9 -11 -8 -18 2 -31 12 -14 12 -16 0 -8 -10 5 -12 4 -7
-3 8 -13 36 -16 37 -4 0 4 2 24 3 45 2 36 27 69 34 47 2 -6 9 -7 15 -3 6 4 8
0 4 -10 -8 -21 6 -22 22 -3 8 10 9 16 1 21 -6 3 -7 12 -4 18 4 7 4 9 -1 5 -4
-4 -14 -3 -22 3 -9 8 -13 8 -13 1 0 -7 -7 -9 -17 -5 -12 5 -14 3 -8 -8 5 -8
-1 -5 -13 5 -14 12 -22 14 -22 7z"/>
<path d="M2930 1458 c0 -13 -6 -30 -12 -37 -10 -11 -10 -13 0 -7 15 9 15 1 1
-26 -9 -16 -8 -19 3 -12 11 6 11 5 0 -8 -10 -13 -9 -16 9 -21 15 -4 19 -2 15
9 -3 8 -1 14 4 14 5 0 5 13 0 31 -5 18 -7 29 -3 26 3 -4 12 1 19 11 12 16 14
16 31 -2 12 -12 13 -16 3 -11 -12 6 -13 5 -2 -6 6 -7 12 -27 12 -44 0 -21 5
-32 15 -32 8 0 12 4 9 9 -3 4 0 8 7 8 9 0 9 3 0 14 -9 11 -9 15 1 19 10 4 10
6 -1 6 -11 1 -11 4 -1 16 9 10 9 15 1 15 -6 0 -11 10 -11 22 0 12 -3 18 -7 15
-3 -4 -12 -2 -20 4 -7 6 -13 7 -13 2 0 -11 -29 -11 -48 1 -8 5 -12 0 -12 -16z"/>
<path d="M3170 1473 c0 -4 -20 -7 -43 -5 l-44 4 2 -39 c0 -21 -3 -44 -8 -50
-6 -9 -5 -13 2 -13 7 0 10 -4 6 -9 -7 -12 27 -23 48 -15 12 4 15 0 14 -15 -1
-21 -35 -25 -49 -6 -5 6 -8 5 -8 -3 0 -8 -5 -10 -12 -6 -9 5 -8 2 1 -10 20
-24 97 -19 95 7 -1 9 2 17 7 17 11 0 8 139 -3 146 -4 3 -8 2 -8 -3z m-20 -43
c0 -11 6 -20 13 -21 10 0 10 -2 0 -6 -7 -2 -13 -11 -13 -20 0 -9 -8 -13 -22
-11 -18 2 -24 11 -26 37 -2 20 0 31 7 27 5 -4 12 -2 16 4 10 17 25 11 25 -10z"/>
<path d="M2552 1397 c-12 -14 -5 -57 9 -57 9 0 12 12 7 28 -2 4 -7 6 -13 4 -5
-1 -2 4 8 11 9 8 17 17 17 21 0 11 -17 7 -28 -7z"/>
</g>
</svg>
